<?xml version="1.0" encoding="UTF-8" standalone="no"?>
<svg
   xmlns:dc="http://purl.org/dc/elements/1.1/"
   xmlns:cc="http://creativecommons.org/ns#"
   xmlns:rdf="http://www.w3.org/1999/02/22-rdf-syntax-ns#"
   xmlns:svg="http://www.w3.org/2000/svg"
   xmlns="http://www.w3.org/2000/svg"
   viewBox="0 0 9379.3203 444.46667"
   height="444.46667"
   width="9379.3203"
   xml:space="preserve"
   id="svg2"
   version="1.1"><metadata
     id="metadata8"><rdf:RDF><cc:Work
         rdf:about=""><dc:format>image/svg+xml</dc:format><dc:type
           rdf:resource="http://purl.org/dc/dcmitype/StillImage" /></cc:Work></rdf:RDF></metadata><defs
     id="defs6" /><g
     transform="matrix(1.3333333,0,0,-1.3333333,0,444.46667)"
     id="g10"><g
       transform="scale(0.1)"
       id="g12"><g
         transform="scale(3.96963)"
         id="g14"><path
           id="path16"
           style="fill:#100f0d;fill-opacity:1;fill-rule:nonzero;stroke:none"
           d="m 16122.1,728.623 c -118.9,74.088 -271.5,111.077 -457.8,111.077 -188.6,0 -341.8,-37.364 -459.3,-112.201 -113.2,-71.84 -172.1,-167.768 -176.2,-287.732 h -159.9 V 828.62 H 14688 V 29.6096 h 180.9 V 392.178 h 161.2 c 9.5,-110.008 68,-198.119 174.9,-264.232 117.5,-72.9631 270.3,-109.4176 458.2,-109.4176 190,0 343.7,36.8295 461.1,110.5416 117.2,73.498 175.7,173.122 175.7,298.867 0,126.654 -59.2,226.812 -177.9,300.686 m -137.6,-568.077 c -82.6,-65.7362 -189.2,-98.7112 -320.2,-98.7112 -130.1,0 -236.8,32.6001 -319.6,97.5882 -82.7,65.201 -124.2,153.904 -124.2,266.265 0,114.076 41.1,204.063 123.1,270.335 82.1,66.111 189.1,99.246 320.7,99.246 130.2,0 236.7,-32.76 319.6,-98.123 82.8,-65.576 124.3,-155.188 124.3,-269.209 0,-112.416 -41.3,-201.493 -123.7,-267.391" /></g><g
         transform="scale(1.70644)"
         id="g18"><path
           id="path20"
           style="fill:#100f0d;fill-opacity:1;fill-rule:nonzero;stroke:none"
           d="M 16124.3,1927.59 14292,547.438 V 1927.59 h -425.5 V 68.8796 L 14292,394.148 15874,1602.32 V 68.8796 h 426 V 1927.59 h -175.7" /></g><g
         transform="scale(3.40221)"
         id="g22"><path
           id="path24"
           style="fill:#100f0d;fill-opacity:1;fill-rule:nonzero;stroke:none"
           d="m 16299.7,543.358 0.3,-56.837 v 56.837 h -0.3" /></g><path
         id="path26"
         style="fill:#100f0d;fill-opacity:1;fill-rule:nonzero;stroke:none"
         d="m 7146.74,3095.23 v 1.49 h -529.13 v -73.52 c 0,0 497.46,27.2 525.51,-472.6 V 1848.71 H 9287.89 V 1655.33 H 7143.12 V 311.699 H 9807.45 V 117.68 H 6424.87 V 3289.25 H 9807.45 V 3095.23 H 7146.74" /><path
         id="path28"
         style="fill:#100f0d;fill-opacity:1;fill-rule:nonzero;stroke:none"
         d="m 15684.1,2588.8 c -22.1,82.24 -72,169.79 -150,261.59 -77.8,92.65 -181.5,169.15 -310,229.5 -129.4,60.14 -310.3,110.08 -541.9,149.82 -232.3,39.73 -506.4,59.49 -823.9,59.49 H 11937.8 V 117.641 h 718 V 1345.04 l 4.5,-2.76 h 1198 c 317.5,0 591.6,19.76 823.9,59.5 231.6,39.74 412.5,88.82 541.9,147.69 128.5,58.86 232.2,133.02 310,224.18 78,91.17 127.9,177.23 150,257.98 22.1,80.96 33.2,171.91 33.2,274.97 0,105.83 -11.1,199.97 -33.2,282.2 M 13853.9,1536.29 h -1198.1 v 119 l 0.6,193.38 h -0.6 v 701.88 c -27.8,499.81 -525.5,472.61 -525.5,472.61 v 72.03 h 1723.6 c 734.4,0 1101.1,-263.07 1101.1,-788.59 0,-513.82 -366.7,-770.31 -1101.1,-770.31" /><g
         transform="scale(3.08416)"
         id="g30"><path
           id="path32"
           style="fill:#100f0d;fill-opacity:1;fill-rule:nonzero;stroke:none"
           d="M 16300,1066.51 V 38.1726 h -235.7 V 1005.26 h -0.5 v -1.17 l 0.5,-0.49 h -1001.5 v -23.353 c 0,0 161.4,8.82 170.5,-153.234 V 599.366 h 0.2 l -0.2,-62.63 V 38.1726 h -232.9 V 1066.51 H 16300" /></g><g
         transform="scale(1.31797)"
         id="g34"><path
           id="path36"
           style="fill:#100f0d;fill-opacity:1;fill-rule:nonzero;stroke:none"
           d="m 16226.3,1060.21 c -49,85.93 -118.2,152.2 -206.9,199.11 -89.3,46.28 -178,80.3 -266,101.43 -88.2,21.28 -189.6,37.4 -305.7,48.52 209.1,26.76 367,79.17 473.1,157.37 105.2,78.03 158.3,199.12 158.3,364.06 0,87.07 -13.4,162.36 -39.7,225.4 -26.7,63.53 -69.2,115.45 -127,155.59 -58.1,40.15 -119.5,73.04 -184.1,98.68 -64.7,25.64 -148.3,44.66 -252.1,56.91 -103.8,12.26 -200.2,20.16 -288.9,23.38 -89.1,3.39 -199.6,5 -331.3,5 H 13463.4 V 89.259 h 1416.2 c 191.6,0 357.9,5.6431 499.6,16.766 141.6,11.124 272.1,31.764 392.6,61.915 120.5,29.994 217.9,69.653 292.2,118.666 74.8,49.176 132.8,112.22 174.1,190.255 41.3,78.038 61.9,169.461 61.9,274.425 0,119.789 -24.7,222.978 -73.7,308.924 M 13609.6,2293.8 v 58.04 H 14856 c 203,0 363.1,-32.41 481.2,-97.06 118.4,-64.66 177.4,-180.1 177.4,-347.46 0,-162.84 -57.9,-277.64 -174,-345.68 -115.9,-68.04 -277.1,-102.06 -484.6,-102.06 h -847.6 v 475.64 c -3.4,60.78 -15.7,110.92 -34.7,152.84 -97.5,220.25 -364.1,205.74 -364.1,205.74 m 1895,-1943.504 c -151.7,-78.195 -360.8,-117.217 -628.5,-117.217 h -867.7 V 1312.21 h 867.7 c 267.7,0 476.8,-40.15 628.5,-119.79 151.2,-80.3 227,-222.026 227,-424.368 0,-200.901 -75.8,-340.204 -227,-417.756" /></g><g
         transform="scale(2.58511)"
         id="g38"><path
           id="path40"
           style="fill:#100f0d;fill-opacity:1;fill-rule:nonzero;stroke:none"
           d="m 16262.4,540.526 c -24.9,43.812 -60.2,77.599 -105.4,101.516 -45.6,23.592 -90.8,40.938 -135.7,51.709 -44.9,10.849 -96.6,19.069 -155.8,24.74 106.6,13.643 187.1,40.362 241.1,80.23 53.8,39.784 80.8,101.519 80.8,185.61 0,44.389 -6.9,82.779 -20.2,114.919 -13.7,32.39 -35.3,58.86 -64.8,79.32 -29.6,20.47 -60.9,37.24 -93.9,50.31 -32.9,13.07 -75.6,22.77 -128.5,29.02 -52.9,6.24 -102.1,10.27 -147.3,11.92 -45.4,1.72 -101.7,2.54 -168.9,2.54 h -710 V 45.507 h 722 c 97.7,0 182.5,2.8771 254.7,8.5481 72.2,5.671 138.8,16.194 200.2,31.5659 61.4,15.292 111.2,35.511 149,60.5 38.1,25.071 67.7,57.213 88.7,96.998 21.1,39.786 31.6,86.396 31.6,139.91 0,61.072 -12.6,113.681 -37.6,157.497 m -1334,628.924 v 29.59 h 635.4 c 103.5,0 185.1,-16.52 245.4,-49.48 60.3,-32.97 90.4,-91.82 90.4,-177.148 0,-83.022 -29.5,-141.55 -88.7,-176.24 -59.1,-34.688 -141.3,-52.034 -247.1,-52.034 h -432.1 v 242.495 c -1.7,30.987 -8,56.557 -17.7,77.927 -49.7,112.29 -185.6,104.89 -185.6,104.89 m 966.1,-990.858 c -77.3,-39.866 -184,-59.761 -320.4,-59.761 h -442.4 v 550.173 h 442.4 c 136.4,0 243.1,-20.467 320.4,-61.072 77,-40.939 115.7,-113.195 115.7,-216.355 0,-102.426 -38.7,-173.447 -115.7,-212.985" /></g><path
         id="path42"
         style="fill:#100f0d;fill-opacity:1;fill-rule:nonzero;stroke:none"
         d="m 6424.94,116.879 h 718.25 v 0.851 h -718.25 v -0.851" /><path
         id="path44"
         style="fill:#100f0d;fill-opacity:1;fill-rule:nonzero;stroke:none"
         d="m 748.277,1703.08 c 0,-449.01 178.711,-801.119 535.073,-1056.971 357.21,-255 827.69,-382.929 1412.06,-382.929 260.95,0 528.49,25.718 801.13,77.14 273.49,51.43 510.21,119.852 709.32,205.059 V 346.91 C 3727.31,164.582 3182.68,73.4219 2571.95,73.4219 2205.18,73.4219 1867.73,107.422 1561.3,175 1254.03,242.57 983.516,342.449 748.277,474.832 513.891,606.371 330.074,778.5 197.688,990.148 66.1523,1201.16 0.0625,1442.13 0.0625,1712.01 c 0,358.49 114.5395,661.51 345.3125,909.92 230.988,247.57 535.926,428.4 915.875,541.67 380.8,113.26 820.46,169.78 1319.41,169.78 604.99,0 1146.65,-89.67 1625.2,-269.02 v -555.69 h -234.38 l -461.77,538.05 c -272.63,64.6 -551.86,97.11 -836.4,97.11 -572.47,0 -1036.36,-127.92 -1392.08,-383.13 C 926.141,2505.06 748.277,2152.95 748.277,1703.08" /><g
         transform="scale(2.09701)"
         id="g46"><path
           id="path48"
           style="fill:#100f0d;fill-opacity:1;fill-rule:nonzero;stroke:none"
           d="m 14651.2,812.147 c 0,-214.118 85.2,-382.029 255.1,-504.037 170.4,-121.602 394.7,-182.607 673.4,-182.607 124.4,0 252.1,12.264 382.1,36.786 130.4,24.525 243.3,57.153 338.2,97.786 v -94.644 c -228.2,-86.9467 -487.9,-130.4183 -779.2,-130.4183 -174.9,0 -335.8,16.2136 -481.9,48.4396 -146.5,32.2227 -275.5,79.8517 -387.7,142.9807 -111.8,62.727 -199.5,144.811 -262.6,245.739 -62.7,100.626 -94.2,215.536 -94.2,344.236 0,170.952 54.6,315.452 164.6,433.912 110.2,118.06 255.6,204.29 436.8,258.31 181.6,54.01 391.3,80.96 629.2,80.96 288.5,0 546.8,-42.76 775,-128.29 v -264.99 h -111.8 l -220.2,256.58 c -130,30.81 -263.1,46.31 -398.8,46.31 -273.1,0 -494.2,-61 -663.9,-182.71 -169.3,-121.9 -254.1,-289.81 -254.1,-504.343" /></g><g
         transform="scale(4.31563)"
         id="g50"><path
           id="path52"
           style="fill:#100f0d;fill-opacity:1;fill-rule:nonzero;stroke:none"
           d="m 15498.8,377.599 c 0,-104.042 41.4,-185.634 124,-244.918 82.8,-59.0877 191.8,-88.7292 327.2,-88.7292 60.5,0 122.5,5.9576 185.6,17.8747 63.4,11.9143 118.3,27.7715 164.4,47.5155 V 63.3507 c -110.9,-42.2456 -237.1,-63.3688028 -378.6,-63.3688028 -85,0 -163.2,7.8783328 -234.2,23.5345028 -71.2,15.6599 -133.9,38.8016 -188.4,69.4777 -54.3,30.4809 -96.9,70.3629 -127.5,119.4059 -30.5,48.894 -45.9,104.733 -45.9,167.266 0,83.068 26.6,153.285 80.1,210.845 53.5,57.365 124.2,99.268 212.2,125.512 88.2,26.245 190.1,39.342 305.7,39.342 140.2,0 265.7,-20.778 376.6,-62.337 V 564.267 h -54.3 l -107,124.675 c -63.2,14.968 -127.9,22.502 -193.8,22.502 -132.7,0 -240.2,-29.642 -322.6,-88.779 -82.3,-59.235 -123.5,-140.826 -123.5,-245.066" /></g><g
         transform="scale(3.44626)"
         id="g54"><path
           id="path56"
           style="fill:#100f0d;fill-opacity:1;fill-rule:nonzero;stroke:none"
           d="m 15378.4,954.458 v -34.593 l 63.8,-63.757 L 15084,34.1062 h 101.2 l 363.6,864.0538 h 542.8 V 34.1062 H 16300 V 954.458 h -921.6" /></g></g></g></svg>